<?xml version="1.0" encoding="UTF-8" standalone="no"?>
<svg
   version="1.1"
   viewBox="0 0 1024 1024"
   id="svg115"
   sodipodi:docname="amadeus-home-favicon.svg"
   inkscape:export-filename="amadeus-home-favicon.svg"
   inkscape:export-xdpi="12"
   inkscape:export-ydpi="12"
   inkscape:version="1.3 (0e150ed, 2023-07-21)"
   width="1024"
   height="1024"
   xmlns:inkscape="http://www.inkscape.org/namespaces/inkscape"
   xmlns:sodipodi="http://sodipodi.sourceforge.net/DTD/sodipodi-0.dtd"
   xmlns="http://www.w3.org/2000/svg"
   xmlns:svg="http://www.w3.org/2000/svg">
  <defs
     id="defs115" />
  <sodipodi:namedview
     id="namedview115"
     pagecolor="#fffff7"
     bordercolor="#999999"
     borderopacity="1"
     inkscape:showpageshadow="2"
     inkscape:pageopacity="0"
     inkscape:pagecheckerboard="0"
     inkscape:deskcolor="#d1d1d1"
     inkscape:zoom="0.84291876"
     inkscape:cx="516.06397"
     inkscape:cy="589.61792"
     inkscape:window-width="1440"
     inkscape:window-height="847"
     inkscape:window-x="0"
     inkscape:window-y="25"
     inkscape:window-maximized="1"
     inkscape:current-layer="svg115"
     inkscape:export-bgcolor="#fffff7ff" />
  <g
     id="g1"
     inkscape:label="icon"
     transform="matrix(1.1496313,0,0,1.1496313,-81.669623,-49.673306)">
    <path
       fill="#000000"
       d="m 540.92,150.03 2.56,-1.25 c 5.37,0.75 7.97,6.12 4.46,10.42 -2.74,3.35 -5.84,1.43 -9.18,1.01 -0.22958,-0.0313 -0.46021,0.0594 -0.61,0.24 l -1.5,1.86 c -0.17333,0.22 -0.16,0.43 0.04,0.63 2.98,2.83 1.25,6.92 -2.31,7.63 -0.34,0.0733 -0.68333,0.0767 -1.03,0.01 l -1.14,-0.22 c -0.28658,-0.0526 -0.54652,0.1828 -0.53,0.48 l 1.6,19.61 c 0.0524,0.61591 0.56713,1.08706 1.18,1.08 l 7.75,-0.05 c 0.37333,0 0.66,-0.16 0.86,-0.48 1.12,-1.84 2.39,-4.08 3.93,-5.38 5.17,-4.37 13.65,-3.35 17.8,1.95 5.92,7.56 0,18.98 -9.32,19.28 -5.25333,0.16667 -9.05333,-2.05333 -11.4,-6.66 -0.14793,-0.29498 -0.45001,-0.48088 -0.78,-0.48 l -8.96,0.11 c -0.39333,0 -0.58667,0.19667 -0.58,0.59 l 0.33,21.78 c 0.005,0.36784 0.30675,0.66471 0.68,0.67 l 8.18,0.03 c 0.28,-5.2e-4 0.53178,-0.16575 0.64,-0.42 3.12,-6.99333 8.30667,-9.46 15.56,-7.4 3.02,0.86 5.26333,2.65333 6.73,5.38 5.81,10.77 -6.54,23.1 -17.58,16.76 -1.1,-0.63333 -2.54667,-2.43333 -4.34,-5.4 -0.20667,-0.34667 -0.51333,-0.51667 -0.92,-0.51 l -8.08,0.07 c -0.44667,0 -0.66,0.22333 -0.64,0.67 l 1.52,36.18 c 0.0115,0.31315 0.21401,0.58713 0.51,0.69 9.64667,3.27333 18.34667,8.14667 26.1,14.62 12.11,10.12 19.1,24.31 24.93,38.63 9.88,24.25333 19.65667,48.42 29.33,72.5 0.13186,0.33778 0.4574,0.5601 0.82,0.56 l 188.97,0.02 c 0.26884,-0.005 0.43704,-0.293 0.31,-0.53 -3.97,-7.18 -8.08,-14.39 -12.61,-21.14 -42.02,-62.7 -98.37333,-107.91667 -169.06,-135.65 -4.36,-1.71333 -8.79333,-3.25 -13.3,-4.61 -2.66,-0.8 -4.84,-3.35 -3.3,-6.15 2.37,-4.3 10.89,-0.56 14.54,0.8 68.79333,25.77333 124.92,67.90333 168.38,126.39 10.57,14.23 20.71,30.53 27.63,45.86 2.2,4.88 -5.17,8.72 -8.11,3.13 -0.14832,-0.28285 -0.43721,-0.46004 -0.75,-0.46 L 621.22,402.7 c -0.44742,0.002 -0.75045,0.45632 -0.58,0.87 l 20.71,50.27 c 0.24667,0.60667 0.7,0.91 1.36,0.91 64.42,0.0333 129.01667,0.07 193.79,0.11 5.28,0 4.6,7.55 -1,7.55 -62.72667,0.04 -125.72,0.0567 -188.98,0.05 -0.69333,0 -0.91,0.31667 -0.65,0.95 l 6.23,15.45 c 0.21864,0.53224 0.7321,0.87982 1.3,0.88 63.22667,-0.007 126.51,0.0367 189.85,0.13 4.01,0 4.27,7.18 -0.75,7.18 -61.46,-0.06 -123.23333,-0.0633 -185.32,-0.01 -0.53811,-0.002 -0.90826,0.53974 -0.71,1.04 l 6.96,17.57 c 0.12157,0.29616 0.40986,0.48967 0.73,0.49 60.25333,0.04 120.45,0.0633 180.59,0.07 5.6,0 4.68,7.6 -1.26,7.62 -56.58,0.18 -113.16,0.18 -169.74,0 -1.92667,-0.007 -3.73667,0.0433 -5.43,0.15 -0.52136,0.0341 -0.86045,0.56041 -0.67,1.04 l 9.6,24.6 c 0.1,0.26 0.29333,0.39 0.58,0.39 55.64667,0.28667 111.28667,0.30667 166.92,0.06 3.83,-0.01 5.76,4.75 2.54,6.97 -0.74667,0.52667 -1.89,0.78667 -3.43,0.78 -53.63333,-0.0467 -107.79333,-0.13 -162.48,-0.25 -1.18,-0.007 -1.54333,0.53333 -1.09,1.62 3.68667,8.79333 7.24,17.84667 10.66,27.16 3.79,10.32 7.64,19.21 11.73,28.74 0.13333,0.31333 0.37,0.47 0.71,0.47 54.46,0.27333 98.91333,0.30333 133.36,0.09 6.27,-0.04 5.33,7.56 -1.15,7.57 -43.11333,0.04 -86.22333,0.02 -129.33,-0.06 -0.20572,0.004 -0.34853,0.20288 -0.28,0.39 10.3,27.71 22.1,58.29 56.51,59.94 5.5,0.26667 10.4,-0.76 14.7,-3.08 5.33,-2.87 7.87,-8.46 12.86,-11.85 8.28,-5.61 20.68,-4.72 26.83,3.63 6.7,9.1 4.44,22.3 -2.78,30.44 -8.19,9.26 -18.8,14.55 -31.27,17.36 -27.33,6.14 -54.37,0 -76.62,-16.82 -19.12,-14.46 -29.9,-33.4 -39.02,-55.77 -7.4,-18.14 -14.83,-36.12 -21.95,-54.49 -4.58,-11.83333 -9.36667,-23.55333 -14.36,-35.16 -0.0842,-0.19958 -0.2771,-0.32951 -0.49,-0.33 l -52.41,-0.08 c -0.61333,0 -0.9,0.30667 -0.86,0.92 0.95,17.15 7.8,46.35 30.98,44.75 4.59,-0.31 10.53,-4.14 14.11,0.02 1.63,1.88 0.92,4.81 -0.68,6.79 -7.43,9.18 -10.5,18.92 -7.12,30.59 1.31333,4.53333 2.6,9.07 3.86,13.61 17.53,63.04 -38.01,103.66 -94.25,104.59 -0.33333,0.007 -0.61667,0.12667 -0.85,0.36 l -1.76,1.71 c -0.26,0.25333 -0.56667,0.42667 -0.92,0.52 -4.26667,1.09333 -8.02667,0.34667 -11.28,-2.24 -0.28481,-0.22674 -0.63737,-0.35013 -1,-0.35 -22.02,0.08 -41.85333,-5.59333 -59.5,-17.02 -12.61,-8.16 -24.41,-21.24 -30.69,-34.97 -7.62,-16.68667 -8.54,-34.32667 -2.76,-52.92 0.73333,-2.36667 2.06,-7.27 3.98,-14.71 2.06,-7.99 1.28,-15.08 -3.01,-22.28 -1.58667,-2.67333 -3.31333,-5.24667 -5.18,-7.72 -3.85,-5.12 2.05,-8.88 6.72,-7.72 3.05,0.75 6.38,1.65 9.41,1.55 21.31,-0.71 29.38,-27.65 28.9,-44.98 -0.0133,-0.38667 -0.21333,-0.58 -0.6,-0.58 l -50.93,0.08 c -0.68799,5.8e-4 -1.3061,0.42057 -1.56,1.06 -12.68,31.7 -25.76,63.32 -39.24,94.86 -6.23333,14.56667 -14.14667,26.97667 -23.74,37.23 -26.79,28.64 -68.22,40.98 -104.99,24.15 -8.69,-3.98 -16.04,-10.38 -20.46,-18.44 -5.15,-9.41 -3.57,-22.4 5.88,-28.37 6.47,-4.09 15.33,-3.81 21.76,0.24 4.52,2.84 7.3,8.4 11.98,11.29 2.63333,1.63333 5.82667,2.75 9.58,3.35 20.49,3.3 36.19,-7.06 47.53,-23.13 6.78,-9.6 12.21,-23.82 16.88,-35.63 0.12614,-0.31931 -0.1067,-0.66599 -0.45,-0.67 -44.07333,-0.0733 -88.15,-0.08 -132.23,-0.02 -4.58,0 -5.9,-7.54 0.31,-7.53 45.00667,0.1 90.01667,0.003 135.03,-0.29 0.34667,0 0.58667,-0.16333 0.72,-0.49 l 22.95,-56.77 c 0.12,-0.29333 0.0233,-0.44 -0.29,-0.44 -55.36667,-0.0333 -110.74,-0.007 -166.12,0.08 -5.86,0 -5.22,-7.65 -0.27,-7.64 56.34667,0.13333 112.69,0.12 169.03,-0.04 0.36,0 0.61,-0.16667 0.75,-0.5 l 10.21,-24.87 c 0.22667,-0.55333 0.04,-0.83 -0.56,-0.83 -60.01333,-0.0333 -119.71333,-0.0433 -179.1,-0.03 -5.85,0.01 -6.02,-7.74 1.09,-7.74 60.44,0 120.84667,0.02 181.22,0.06 0.2905,-0.001 0.55084,-0.17481 0.66,-0.44 l 7.51,-18.22 c 0.10528,-0.26117 -0.0919,-0.54653 -0.38,-0.55 -62.87333,-0.0267 -125.79333,-0.0333 -188.76,-0.02 -1.34,0.007 -2.45667,-0.89667 -3.35,-2.71 -0.12667,-0.26 -0.16333,-0.53 -0.11,-0.81 0.47333,-2.45333 1.98667,-3.68 4.54,-3.68 61.47333,0 122.94667,0.0467 184.42,0.14 1.22,0.007 3.35667,-0.11 6.41,-0.35 0.30535,-0.0239 0.56944,-0.21806 0.68,-0.5 l 6.32,-15.94 c 0.18667,-0.47333 0.0233,-0.71 -0.49,-0.71 -63.79333,0.0533 -127.6,0.0633 -191.42,0.03 -5.23,0 -5.28,-7.74 1.15,-7.72 64.50667,0.18 129.19,0.23 194.05,0.15 0.28,0 0.47333,-0.13333 0.58,-0.4 l 21.14,-51.38 c 0.1,-0.24 0.0233,-0.36 -0.23,-0.36 l -190.01,0.02 c -0.32,0 -0.61333,0.0933 -0.88,0.28 -2.57,1.81 -5.79,4.42 -8.61,1.23 -2.25,-2.55 2.33,-9.72 3.7,-12.19 11.16,-20.18667 23.20333,-38.13333 36.13,-53.84 42.49,-51.64 99.06,-92.73 163.07,-113.23 9.02,-2.88 10.32,6.68 3.95,8.04 -3.23,0.69 -6.49,1.41 -9.61,2.54 -54.11,19.68 -101.27,53.51 -140.23,96.6 -18.06667,19.97333 -32.90333,40.81 -44.51,62.51 -0.18667,0.35333 -0.0833,0.53 0.31,0.53 h 189.76 c 0.30779,0 0.58529,-0.19028 0.7,-0.48 16.78667,-41.39333 28.24,-69.15 34.36,-83.27 8.96,-20.68667 24.29,-35.06 45.99,-43.12 0.32667,-0.12 0.49667,-0.35667 0.51,-0.71 l 1.06,-35.64 c 0.0133,-0.40667 -0.18667,-0.61 -0.6,-0.61 l -8.76,0.06 c -0.27345,9.1e-4 -0.52331,0.16488 -0.64,0.42 -4.24,9.4 -15.69,9.47 -20.8,0.83 -1.74667,-2.96 -2.13333,-6.06 -1.16,-9.3 3.28,-10.94 18.23,-11.37 22.71,-1.25 0.15333,0.34667 0.41667,0.52 0.79,0.52 l 7.98,0.02 c 0.41333,0 0.63,-0.20667 0.65,-0.62 l 1.02,-21.59 c 0.02,-0.39333 -0.16667,-0.59333 -0.56,-0.6 l -8.97,-0.11 c -0.41333,0 -0.73,0.17 -0.95,0.51 -6.19,9.74 -20.74,8.79 -22.8,-3.58 -2.41,-14.47 19.19,-19.3 23.16,-5.67 0.0867,0.29333 0.28,0.44 0.58,0.44 l 8.78,-0.04 c 0.34667,-0.007 0.53,-0.18333 0.55,-0.53 l 1.28,-19.56 c 0.0267,-0.31333 -0.12,-0.47667 -0.44,-0.49 l -3.2,-0.1 c -0.34,-0.0133 -0.59333,-0.16667 -0.76,-0.46 -1.54,-2.66 -1.70333,-5.32333 -0.49,-7.99 0.15333,-0.34 0.0667,-0.6 -0.26,-0.78 -3.32,-1.84 -5.1,0.33 -7.9,-0.34 -8.15,-1.94 -4.74,-15.65 4.56,-11.33 0.30667,0.14 0.6,0.11667 0.88,-0.07 l 2.91,-1.9 c 0.25266,-0.16192 0.58588,0.0102 0.6,0.31 l 0.01,0.52 c 0.0262,0.2108 0.31306,0.25382 0.4,0.06 2.44,-7.09333 4.53333,-14.28333 6.28,-21.57 0.56,-2.36 1.83,-3.67 4.43,-3.69 5.86,-0.0467 11.78,-0.0567 17.76,-0.03 1.03664,0.005 1.95076,0.68055 2.26,1.67 l 6.33,20.51 c 0.11333,0.35333 0.34,0.60333 0.68,0.75 1.58,2.9 3.4,3.41 1.58,2.9 0.72667,-0.38 1.33333,-0.21 1.82,0.51 0.18667,0.28 0.44667,0.4 0.78,0.36 z m -32.22,7.26 c 0.64667,1.77333 1.85333,2.00667 3.62,0.7 0.9,-8.12667 1.18667,-15.95333 0.86,-23.48 -0.0371,-1.39147 -2.04593,-1.53931 -2.31,-0.17 -1.48667,7.45333 -2.21,15.10333 -2.17,22.95 z m 12.52,1.97 0.38,0.94 c 0.12,0.29333 0.34,0.44 0.66,0.44 h 1.19 c 0.14996,-5.5e-4 0.28272,0.092 0.33,0.23 l 0.42,1.35 c 0.27333,0.86667 0.41667,0.84333 0.43,-0.07 l 0.1,-5.34 c -0.39333,-7.71333 -1.11667,-15.14333 -2.17,-22.29 -0.14667,-0.98667 -0.68,-1.30667 -1.6,-0.96 -0.32301,0.12269 -0.5428,0.4249 -0.56,0.77 -0.38,8.15333 -0.10667,16.46333 0.82,24.93 z m 2.7127,23.6075 c -0.0121,-0.31459 -0.27691,-0.55981 -0.5915,-0.5477 l -1.6788,0.0645 c -0.31459,0.0121 -0.55981,0.27691 -0.5477,0.5915 l 2.2526,58.6367 c 0.0121,0.31459 0.27691,0.55981 0.5915,0.5477 l 1.6788,-0.0645 c 0.31459,-0.0121 0.55981,-0.27691 0.5477,-0.5915 z m -11.6166,0.8184 c 0.0202,-0.46348 -0.33912,-0.85559 -0.8026,-0.8758 l -1.4586,-0.0637 c -0.46352,-0.0203 -0.85569,0.33908 -0.8759,0.8026 l -2.5151,57.6051 c -0.0202,0.46348 0.33912,0.85559 0.8026,0.8758 l 1.4586,0.0637 c 0.46352,0.0203 0.85569,-0.33908 0.8759,-0.8026 z M 515.74,242.09 h 1.72 c 0.37721,4e-5 0.68453,-0.30283 0.69,-0.68 l 0.05,-15.83 c 0.0827,-23.66609 -0.20382,-42.8577 -0.64,-42.87 h -1.52 c -0.43637,-0.0141 -0.85728,19.17305 -0.94,42.85 l -0.05,15.83 c -0.006,0.38498 0.30498,0.70004 0.69,0.7 z m -0.97,284.9 -8.77,-2.73 3.71,-263.48 c 0,-0.30376 -0.24624,-0.55 -0.55,-0.55 h -1.85 c -0.37333,0 -0.55333,0.18667 -0.54,0.56 0.08,3.67 -0.49,7.59 -0.54,10.85 -1.37333,83.9 -2.54,167.89333 -3.5,251.98 l -11.54,-4.52 -1.32,-0.71 c -0.30667,-0.16667 -0.45333,-0.42333 -0.44,-0.77 0.63,-15.07 1.99,-30.58 2.5,-45.12 0.78667,-22.48667 1.34667,-37.15333 1.68,-44 0.68,-14.08 1.08333,-27.97333 1.21,-41.68 0.003,-0.66176 -0.63787,-1.13583 -1.27,-0.94 -32.98,10.32 -53.42,39.65 -49.23,74.33 1.85,15.24 10.57,29.75 0.09,44.27 -0.18667,0.26 -0.13,0.44 0.17,0.54 14.6,4.78 19.95,16.61 21.12,30.97 2.16,26.71 -6.22,66.85 -41.01,66.29 -0.46667,-0.007 -0.55333,0.17 -0.26,0.53 7.91,9.67 6.83,22.9 3.08,33.7 -3.78,10.91 -6.86,21.78 -6.38,32.9 0.89,20.64 12.01,38.59 28.46,51.03 15.6,11.8 33.21333,18.19667 52.84,19.19 1.3,0.0667 2.27333,-0.20667 2.92,-0.82 0.79333,-0.76 1.27667,-1.78 1.45,-3.06 2.36667,-17.52 1.76667,-34.93667 -1.8,-52.25 -2.84,-13.80667 -5.66333,-25.57333 -8.47,-35.3 -2.65,-9.17 -4.37,-16.68 -6.25,-25.05 -0.18358,-0.81435 0.42539,-1.59249 1.26,-1.61 l 6,-0.11 4.55,0.03 0.39,9.44 c 0.0336,0.76737 0.61745,1.39778 1.38,1.49 1.22,0.14667 1.84,-0.31667 1.86,-1.39 0.04,-2.88 0.15,-5.78667 0.33,-8.72 0.0267,-0.43333 0.25667,-0.65 0.69,-0.65 l 7.33,-0.02 c 0.38825,4e-5 0.70453,0.31632 0.71,0.71 v 9.23 c 0,0.40667 0.18333,0.69667 0.55,0.87 0.99333,0.48667 1.88667,0.28667 2.68,-0.6 0.15333,-0.18 0.23333,-0.38667 0.24,-0.62 l 0.02,-8.72 c 0.007,-0.48667 0.25333,-0.73 0.74,-0.73 l 7.48,0.01 c 0.40869,0 0.74,0.33131 0.74,0.74 l 0.07,8.8 c 0.007,0.38667 0.19333,0.63667 0.56,0.75 l 1.55,0.49 c 0.49725,0.15378 1.01171,-0.18278 1.07,-0.7 l 1.02,-9.48 c 0.034,-0.28714 0.27113,-0.50731 0.56,-0.52 l 9.89,-0.44 c 0.36165,-0.0173 0.64758,0.30255 0.59,0.66 -1.72667,10.87333 -4.02,21.49333 -6.88,31.86 -3.08,11.14667 -4.81,17.58333 -5.19,19.31 -3.50667,16.10667 -5.18,32.44667 -5.02,49.02 0.06,5.67333 0.62333,11.23667 1.69,16.69 0.0532,0.26575 0.28904,0.45527 0.56,0.45 12.26,-0.16 23.98333,-2.67333 35.17,-7.54 16.50667,-7.19333 29.48333,-17.77667 38.93,-31.75 9.66667,-14.31333 12.61,-30.09333 8.83,-47.34 -1.13333,-5.17333 -2.41667,-10.06333 -3.85,-14.67 -3.87,-12.4 -5.9,-24.18 2.25,-35.63 0.26,-0.36667 0.16667,-0.52667 -0.28,-0.48 -17.29,1.78 -30.26,-10.14 -35.63,-25.55 -4.89333,-14.07333 -6.68333,-28.54667 -5.37,-43.42 1.09,-12.3 8.22,-25.77 21.25,-28.03 0.35333,-0.06 0.41667,-0.22667 0.19,-0.5 -8.11,-10.1 -6.4,-20.34 -3.07,-31.78 1.3,-4.47333 2.12333,-7.91667 2.47,-10.33 1.57,-10.84 1.54,-22.18 -2,-32.56 -7.44,-21.78 -24.26,-36.94 -47.32,-43.15 -0.43333,-0.12 -0.64333,0.0433 -0.63,0.49 l 4.26,107.87 0.53,4.75 0.73,17.89 -13.32,5.41 -3.51,-262.56 c -0.006,-0.35342 -0.2921,-0.63548 -0.64,-0.63 l -1.6,0.03 c -0.38667,0.007 -0.57667,0.20333 -0.57,0.59 l 2.33,264.05 -8.91,2.41 0.28,-266.72 c 0,-0.34667 -0.17333,-0.51333 -0.52,-0.5 l -2.15,0.08 c -0.42667,0.0133 -0.64,0.23667 -0.64,0.67 z M 539.7,376.8 c 8.64,2.42667 16.67,5.88 24.09,10.36 0.24,0.14667 0.41667,0.21333 0.53,0.2 0.3973,-0.0396 0.63168,-0.48339 0.47,-0.89 -9.54667,-23.1 -18.55333,-46.40667 -27.02,-69.92 -0.85333,-2.37333 -1.23,-2.3 -1.13,0.22 l 2.4,59.21 c 0.0175,0.38808 0.28462,0.72 0.66,0.82 z m -64.15,-6.15 c -2.2,5.43333 -4.36,10.87 -6.48,16.31 -0.0988,0.23804 0.17932,0.4536 0.4,0.31 7.60667,-5.34667 15.95333,-9.02 25.04,-11.02 0.39333,-0.0867 0.59333,-0.33 0.6,-0.73 l 1.87,-59.36 c 0,-0.1421 -0.19535,-0.18117 -0.25,-0.05 -7.06,18.90667 -14.12,37.08667 -21.18,54.54 z m 122.19,143.66 c -9.03,-2.02 -16.7,3.81 -19.14,12.28 -1.00667,3.50667 -1.55667,7.61667 -1.65,12.33 -0.007,0.35333 0.16667,0.53 0.52,0.53 l 49.7,0.21 c 0.37333,0 0.49,-0.17 0.35,-0.51 l -28.58,-70.6 c -0.15634,-0.35828 -0.67093,-0.33899 -0.8,0.03 -2.96,9.3 -9.11,21.09 -1.12,29.89 2.23,2.46 7.25,5.41 8.27,8.56 1.32,4.07 -3.37,8.22 -7.55,7.28 z M 434.82,469.2 406.81,538.89 c -0.21333,0.53333 -0.0333,0.8 0.54,0.8 l 48.76,-0.06 c 0.26667,0 0.40333,-0.13333 0.41,-0.4 0.19,-8.45 -4.02,-23.89 -14.48,-25.08 -2.74,-0.31333 -4.67333,-0.28 -5.8,0.1 -4.91,1.64 -9.95,-3.3 -7.8,-8.12 0.88,-1.99 3.07,-2.84 4.86,-3.99 11.98,-7.66 5.48,-22.27 2.61,-32.87 -0.1485,-0.53751 -0.89226,-0.58527 -1.09,-0.07 z m 73.01,175.04 c 0,-1.52983 -1.24017,-2.77 -2.77,-2.77 -1.52983,0 -2.77,1.24017 -2.77,2.77 0,1.52983 1.24017,2.77 2.77,2.77 1.52983,0 2.77,-1.24017 2.77,-2.77 z m 8.0882,2.4857 c 1.31652,0.33557 2.68455,-0.57244 3.0556,-2.0281 0.37102,-1.45568 -0.39547,-2.90775 -1.712,-3.2433 -1.31652,-0.33557 -2.68455,0.57244 -3.0556,2.0281 -0.37102,1.45568 0.39547,2.90775 1.712,3.2433 z m 15.3615,-2.6567 c 0.0191,-1.36403 -1.21445,-2.48727 -2.7552,-2.5088 -1.54072,-0.0215 -2.80515,1.0668 -2.8242,2.4308 -0.0191,1.36403 1.21445,2.48727 2.7552,2.5088 1.54072,0.0215 2.80515,-1.0668 2.8242,-2.4308 z"
       id="path80"
       sodipodi:nodetypes="ccccccccccccccccccccccccccccccccccccccccccccccccccccccccscccccccccccccccccccccccccccccccccccccccccccccccccccccccccccccccccccccccccsccccccccccccccscccccccscccccccccccccccccccccsccccccccccccccccccccccccccccccccccccccccccccccccccccccsccccccccccssccsscccssccssccccccccccccccsscccccccccccccccccccccccccccccccscccscccccccccccccccccccccccccccccccccccccccccccccccccccccccccccccsccccccccccccccccccccccccccsssssssssssssss" />
    <path
       fill="#fffdf6"
       d="m 512.32,157.99 q -1.96,0.43 -3.62,-0.7 -0.06,-11.77 2.17,-22.95 a 1.16,1.17 49.3 0 1 2.31,0.17 q 0.49,11.29 -0.86,23.48 z"
       id="path81" />
    <path
       fill="#fffdf6"
       d="m 524.73,156.81 -3.51,2.45 q -1.39,-12.7 -0.82,-24.93 a 0.87,0.87 0 0 1 0.56,-0.77 q 1.38,-0.52 1.6,0.96 1.58,10.72 2.17,22.29 z"
       id="path82" />
    <path
       fill="#f9f4ed"
       d="m 543.48,148.78 -2.56,1.25 q -0.88,-2.72 2.56,-1.25 z"
       id="path83" />
    <path
       fill="#f9f4ed"
       d="m 524.73,156.81 -0.1,5.34 q -0.02,1.37 -0.43,0.07 l -0.42,-1.35 a 0.34,0.35 80.7 0 0 -0.33,-0.23 h -1.19 q -0.48,0 -0.66,-0.44 l -0.38,-0.94 z"
       id="path84" />
    <path
       fill="#f9f4ed"
       d="m 508.7,157.29 q 1.66,1.13 3.62,0.7 -2.65,1.96 -3.62,-0.7 z"
       id="path85" />
    <rect
       fill="#fffdf6"
       x="513.7066"
       y="202.27534"
       transform="rotate(-2.2)"
       width="2.8199999"
       height="59.82"
       rx="0.56999999"
       id="rect85" />
    <rect
       fill="#fffdf6"
       x="516.70068"
       y="160.32419"
       transform="rotate(2.5)"
       width="3.1400001"
       height="59.34"
       rx="0.83999997"
       id="rect86" />
    <path
       fill="#fffdf6"
       d="m 515.74,242.09 a 0.69,0.69 0 0 1 -0.69,-0.7 l 0.05,-15.83 a 0.79,42.86 0.2 0 1 0.94,-42.85 h 1.52 a 0.79,42.86 0.2 0 1 0.64,42.87 l -0.05,15.83 a 0.69,0.69 0 0 1 -0.69,0.68 z"
       id="path86" />
    <path
       fill="#fffdf6"
       d="m 517.94,526.96 c 0.11,4.89 0.94,9.97 0.89,14.56 q -0.13,13.24 -0.04,26.37 l -0.48,11.46 q 0.53,19.32 0.4,38.9 -0.02,2.25 2.31,2.02 1.88,-0.19 4.79,-0.34 a 0.88,0.88 0 0 0 0.84,-0.87 l 0.43,-37.7 0.7,-12.25 q 0.02,-0.51 -0.47,-0.58 l -1.13,-0.17 -0.04,-1.03 q -0.01,-0.14 0.12,-0.08 0.13,0.07 0.26,0.13 a 0.27,0.27 0 0 0 0.39,-0.24 l -0.06,-42.59 -2.33,-264.05 q -0.01,-0.58 0.57,-0.59 l 1.6,-0.03 a 0.64,0.63 89.1 0 1 0.64,0.63 l 3.51,262.56 1.1,19.48 a 1,1 0 0 0 1.57,0.77 q 1.58,-1.11 2.01,-3.35 0.17,-0.86 1.67,-3.75 3.3,-6.41 6.97,-18.56 l -0.73,-17.89 q 0.74,-3.06 -0.53,-4.75 l -4.26,-107.87 q -0.02,-0.67 0.63,-0.49 c 23.06,6.21 39.88,21.37 47.32,43.15 3.54,10.38 3.57,21.72 2,32.56 q -0.52,3.62 -2.47,10.33 c -3.33,11.44 -5.04,21.68 3.07,31.78 q 0.34,0.41 -0.19,0.5 c -13.03,2.26 -20.16,15.73 -21.25,28.03 q -1.97,22.31 5.37,43.42 c 5.37,15.41 18.34,27.33 35.63,25.55 q 0.67,-0.07 0.28,0.48 c -8.15,11.45 -6.12,23.23 -2.25,35.63 q 2.15,6.91 3.85,14.67 5.67,25.87 -8.83,47.34 -14.17,20.96 -38.93,31.75 -16.78,7.3 -35.17,7.54 a 0.56,0.56 0 0 1 -0.56,-0.45 q -1.6,-8.18 -1.69,-16.69 -0.24,-24.86 5.02,-49.02 0.57,-2.59 5.19,-19.31 4.29,-15.55 6.88,-31.86 a 0.57,0.57 0 0 0 -0.59,-0.66 l -9.89,0.44 a 0.59,0.59 0 0 0 -0.56,0.52 l -1.02,9.48 a 0.83,0.83 0 0 1 -1.07,0.7 l -1.55,-0.49 q -0.55,-0.17 -0.56,-0.75 l -0.07,-8.8 a 0.74,0.74 0 0 0 -0.74,-0.74 l -7.48,-0.01 q -0.73,0 -0.74,0.73 l -0.02,8.72 q -0.01,0.35 -0.24,0.62 -1.19,1.33 -2.68,0.6 -0.55,-0.26 -0.55,-0.87 v -9.23 a 0.72,0.71 89.6 0 0 -0.71,-0.71 l -7.33,0.02 q -0.65,0 -0.69,0.65 -0.27,4.4 -0.33,8.72 -0.03,1.61 -1.86,1.39 a 1.57,1.57 0 0 1 -1.38,-1.49 l -0.39,-9.44 q 0.81,-14.26 0.26,-19.22 -1.09,-9.82 -0.72,-20.08 l 0.29,-11.33 q 0.01,-0.49 -0.48,-0.46 -5.9,0.32 -10.38,4.07 -0.42,0.36 -0.5,0.9 -0.77,5.64 4.08,6.94 l 1.39,31.1 q 0.02,0.46 -0.41,0.63 -1.36,0.55 -1.24,1.95 a 1.2,1.2 0 0 0 0.4,0.8 q 2.48,2.16 2.76,4.67 l -6,0.11 a 1.32,1.32 0 0 0 -1.26,1.61 c 1.88,8.37 3.6,15.88 6.25,25.05 q 4.21,14.59 8.47,35.3 5.35,25.97 1.8,52.25 -0.26,1.92 -1.45,3.06 -0.97,0.92 -2.92,0.82 -29.44,-1.49 -52.84,-19.19 C 433.14,708 422.02,690.05 421.13,669.41 c -0.48,-11.12 2.6,-21.99 6.38,-32.9 3.75,-10.8 4.83,-24.03 -3.08,-33.7 q -0.44,-0.54 0.26,-0.53 c 34.79,0.56 43.17,-39.58 41.01,-66.29 -1.17,-14.36 -6.52,-26.19 -21.12,-30.97 q -0.45,-0.15 -0.17,-0.54 c 10.48,-14.52 1.76,-29.03 -0.09,-44.27 -4.19,-34.68 16.25,-64.01 49.23,-74.33 a 0.98,0.98 0 0 1 1.27,0.94 q -0.19,20.56 -1.21,41.68 -0.5,10.27 -1.68,44 c -0.51,14.54 -1.87,30.05 -2.5,45.12 q -0.02,0.52 0.44,0.77 l 1.32,0.71 q 0.73,5.42 3.37,9.98 1.03,1.77 1.45,3.86 0.91,4.52 3.6,8.32 0.23,0.33 0.63,0.36 0.3,0.02 0.41,0.37 a 0.4,0.4 0 0 0 0.78,-0.05 q 1.73,-9.53 1.3,-18.32 1.44,-126.13 3.5,-251.98 c 0.05,-3.26 0.62,-7.18 0.54,-10.85 q -0.02,-0.56 0.54,-0.56 h 1.85 a 0.55,0.55 0 0 1 0.55,0.55 L 506,524.26 q -0.9,4.03 -0.37,9.5 1,10.32 1.17,25.13 0,0.62 -0.54,4.18 -0.48,3.13 1.86,4.83 l -1.95,0.66 q -0.56,0.19 -0.55,0.77 l 0.07,11.72 c -0.4,6.53 0.63,12.88 0.53,19.37 q -0.07,3.8 0.21,7.59 0.42,5.66 -0.2,11.05 a 1.04,1.03 3.5 0 0 1.02,1.15 l 6.01,0.03 a 1.21,1.21 0 0 0 1.22,-1.2 l 0.28,-39.42 -0.55,-11.73 q -0.25,-11.96 -0.16,-24.05 c 0.04,-4.86 0.99,-11.16 0.72,-16.85 l 0.14,-266.5 q 0,-0.65 0.64,-0.67 l 2.15,-0.08 q 0.52,-0.02 0.52,0.5 z m -61.65,80.29 c 7.96,-2.4 0.93,-12.82 -5.58,-8.16 q -3.91,2.8 -4,8.17 c -0.11,6.59 3.78,11.21 10.14,12.54 13.49,2.84 22.9,-12.73 24.15,-24.04 q 1.03,-9.27 1.94,-27.83 c 0.3,-6.18 0.86,-16.52 8.29,-18.39 a 0.83,0.84 8 0 1 0.92,1.23 q -1.69,2.93 0.54,5.14 a 1.21,1.2 64.9 0 0 0.93,0.34 c 8.45,-0.62 9.09,-11.96 0.19,-13.16 q -12.12,-1.64 -16.87,9.76 -2.39,5.72 -2.51,9.14 -0.52,14.62 -2.55,30.73 c -0.71,5.66 -4.65,17.49 -11.17,18.62 -2.59,0.44 -4.41,-0.88 -4.87,-3.36 q -0.1,-0.57 0.45,-0.73 z m 76.36,-55.08 q -1.54,8.64 -0.32,17.4 -1.28,6.95 -0.29,13.94 -0.4,2.75 -0.4,4.5 -0.03,10.23 0.19,31.24 0.01,0.65 0.66,0.66 1.26,0.02 2.5,0.54 a 2.47,2.47 0 0 0 3.42,-2.55 q -0.25,-2.2 1,-4.14 0.29,-0.46 0.31,-1 l 1.08,-32.32 q 3.68,-4.88 -1.41,-7.6 c -0.05,-5.99 -1.44,-12.46 2.78,-17.56 a 1.41,1.42 66 0 0 0.33,-0.85 q 0.1,-1.8 -1.17,-2.12 -0.43,-1.78 0.71,-2.3 0.51,-0.24 1,0.05 6.26,3.81 6.87,11.71 1.1,14.49 2.21,28.97 c 0.9,11.68 6.95,29.21 21.59,29.36 11.23,0.12 16.57,-14.42 7.4,-21.12 -8.04,-5.86 -11.88,9.34 -4.48,8.18 q 0.54,-0.09 0.6,0.45 0.21,1.63 -1.15,2.74 c -4.19,3.41 -8.91,-2.62 -10.57,-5.87 q -3.56,-6.96 -4.04,-12.98 -1.2,-15.25 -2.19,-30.49 c -0.69,-10.65 -12.42,-22.92 -23.7,-16.76 q -4.29,2.35 -2.93,7.92 z"
       id="path87" />
    <path
       fill="#fffdf6"
       d="m 539.7,376.8 a 0.89,0.89 0 0 1 -0.66,-0.82 l -2.4,-59.21 q -0.15,-3.78 1.13,-0.22 12.7,35.27 27.02,69.92 a 0.66,0.6 75.4 0 1 -0.47,0.89 q -0.17,0.02 -0.53,-0.2 -11.13,-6.72 -24.09,-10.36 z"
       id="path88" />
    <path
       fill="#fffdf6"
       d="m 475.55,370.65 q 10.59,-26.18 21.18,-54.54 a 0.13,0.13 0 0 1 0.25,0.05 l -1.87,59.36 q -0.01,0.6 -0.6,0.73 -13.63,3 -25.04,11.02 a 0.26,0.27 83.1 0 1 -0.4,-0.31 q 3.18,-8.16 6.48,-16.31 z"
       id="path89" />
    <rect
       fill="#000000"
       x="207.48"
       y="416"
       width="183.08"
       height="7.6999998"
       rx="3.8099999"
       id="rect89" />
    <rect
       fill="#000000"
       x="639.84998"
       y="416.03"
       width="185.34"
       height="7.6599998"
       rx="3.8"
       id="rect90" />
    <rect
       fill="#000000"
       x="196.97"
       y="435.73999"
       width="173.89999"
       height="7.7399998"
       rx="3.8"
       id="rect91" />
    <rect
       fill="#000000"
       x="661.83618"
       y="434.45377"
       transform="rotate(0.1)"
       width="173.94"
       height="7.7399998"
       rx="3.8399999"
       id="rect92" />
    <path
       fill="#fffdf6"
       d="m 578.6,526.59 c 2.44,-8.47 10.11,-14.3 19.14,-12.28 4.18,0.94 8.87,-3.21 7.55,-7.28 -1.02,-3.15 -6.04,-6.1 -8.27,-8.56 -7.99,-8.8 -1.84,-20.59 1.12,-29.89 a 0.43,0.43 0 0 1 0.8,-0.03 l 28.58,70.6 q 0.21,0.51 -0.35,0.51 l -49.7,-0.21 q -0.53,0 -0.52,-0.53 0.14,-7.07 1.65,-12.33 z"
       id="path92" />
    <path
       fill="#fffdf6"
       d="m 406.81,538.89 28.01,-69.69 a 0.58,0.57 48.5 0 1 1.09,0.07 c 2.87,10.6 9.37,25.21 -2.61,32.87 -1.79,1.15 -3.98,2 -4.86,3.99 -2.15,4.82 2.89,9.76 7.8,8.12 q 1.69,-0.57 5.8,-0.1 c 10.46,1.19 14.67,16.63 14.48,25.08 q -0.01,0.4 -0.41,0.4 l -48.76,0.06 q -0.86,0 -0.54,-0.8 z"
       id="path93" />
    <path
       fill="#f9f4ed"
       d="m 542.9,495.02 q 1.27,1.69 0.53,4.75 z"
       id="path94" />
    <path
       fill="#f9f4ed"
       d="m 544.16,517.66 c -1.56795,17.94582 0.3763,8.095 0.95728,24.93651 0,-1.65477 -9.21464,1.29719 -12.79464,3.87719 L 530.84,523.07 Z"
       id="path95"
       sodipodi:nodetypes="ccccc" />
    <path
       fill="#f9f4ed"
       d="m 491.19,519.1 11.54,4.52 c 0.19014,43.33278 2.925,51.57 -11.67,50.82 z"
       id="path96"
       sodipodi:nodetypes="cccc" />
    <rect
       fill="#000000"
       x="184.14999"
       y="524.21997"
       width="152.53999"
       height="7.98"
       rx="3.95"
       id="rect96" />
    <path
       fill="#f9f4ed"
       d="m 506,524.26 8.77,2.73 c 0.27,5.69 -0.68,11.99 -0.72,16.85 q -0.09,12.09 0.16,24.05 l -6.09,0.01 q -2.34,-1.7 -1.86,-4.83 0.54,-3.56 0.54,-4.18 -0.17,-14.81 -1.17,-25.13 -0.53,-5.47 0.37,-9.5 z"
       id="path97" />
    <rect
       fill="#000000"
       x="698.28003"
       y="524.21997"
       width="150.16"
       height="8"
       rx="3.96"
       id="rect97" />
    <path
       fill="#f9f4ed"
       d="m 526.85,524.55 0.06,42.59 a 0.27,0.27 0 0 1 -0.39,0.24 q -0.13,-0.06 -0.26,-0.13 -0.13,-0.06 -0.12,0.08 l 0.04,1.03 -7.39,-0.47 q -0.09,-13.13 0.04,-26.37 c 0.05,-4.59 -0.78,-9.67 -0.89,-14.56 z"
       id="path98" />
    <path
       fill="#000000"
       d="m 455.84,607.98 c 0.46,2.48 2.28,3.8 4.87,3.36 6.52,-1.13 10.46,-12.96 11.17,-18.62 q 2.03,-16.11 2.55,-30.73 0.12,-3.42 2.51,-9.14 4.75,-11.4 16.87,-9.76 c 8.9,1.2 8.26,12.54 -0.19,13.16 a 1.21,1.2 64.9 0 1 -0.93,-0.34 q -2.23,-2.21 -0.54,-5.14 a 0.83,0.84 8 0 0 -0.92,-1.23 c -7.43,1.87 -7.99,12.21 -8.29,18.39 q -0.91,18.56 -1.94,27.83 c -1.25,11.31 -10.66,26.88 -24.15,24.04 -6.36,-1.33 -10.25,-5.95 -10.14,-12.54 q 0.09,-5.37 4,-8.17 c 6.51,-4.66 13.54,5.76 5.58,8.16 q -0.55,0.16 -0.45,0.73 z"
       id="path99" />
    <path
       fill="#000000"
       d="m 541.33,552.31 q 0.18,1.22 -0.41,1.99 c -1.64,2.17 -6.48,-0.58 -8.27,-2.13 q -1.36,-5.57 2.93,-7.92 c 11.28,-6.16 23.01,6.11 23.7,16.76 q 0.99,15.24 2.19,30.49 0.48,6.02 4.04,12.98 c 1.66,3.25 6.38,9.28 10.57,5.87 q 1.36,-1.11 1.15,-2.74 -0.06,-0.54 -0.6,-0.45 c -7.4,1.16 -3.56,-14.04 4.48,-8.18 9.17,6.7 3.83,21.24 -7.4,21.12 -14.64,-0.15 -20.69,-17.68 -21.59,-29.36 q -1.11,-14.48 -2.21,-28.97 -0.61,-7.9 -6.87,-11.71 -0.49,-0.29 -1,-0.05 -1.14,0.52 -0.71,2.3 z"
       id="path100" />
    <path
       fill="#f9f4ed"
       d="m 541.33,552.31 q 1.27,0.32 1.17,2.12 a 1.41,1.42 66 0 1 -0.33,0.85 c -4.22,5.1 -2.83,11.57 -2.78,17.56 l -7.06,-3.27 q -1.22,-8.76 0.32,-17.4 c 1.79,1.55 6.63,4.3 8.27,2.13 q 0.59,-0.77 0.41,-1.99 z"
       id="path101" />
    <path
       fill="#000000"
       d="m 514.21,567.89 0.55,11.73 c -2.06,-0.54 -2.96,-0.83 -5.02,0.08 q -1.86,0.83 -4.05,1.35 l -0.07,-11.72 q -0.01,-0.58 0.55,-0.77 l 1.95,-0.66 z"
       id="path102" />
    <path
       fill="#000000"
       d="m 518.79,567.89 7.39,0.47 1.13,0.17 q 0.49,0.07 0.47,0.58 l -0.7,12.25 q -3.47,-2.02 -8.77,-2.01 z"
       id="path103" />
    <rect
       fill="#000000"
       x="183.36"
       y="568.25"
       width="131.94"
       height="7.6799998"
       rx="3.8099999"
       id="rect103" />
    <rect
       fill="#000000"
       x="718.84003"
       y="568.23999"
       width="130.60001"
       height="7.7600002"
       rx="3.78"
       id="rect104" />
    <path
       fill="#000000"
       d="m 532.33,569.57 7.06,3.27 q 5.09,2.72 1.41,7.6 -3.71,2.58 -8.76,3.07 -0.99,-6.99 0.29,-13.94 z"
       id="path104" />
    <path
       fill="#000000"
       d="m 501.63,582.16 -6.99,0.12 q -4.85,-1.3 -4.08,-6.94 0.08,-0.54 0.5,-0.9 4.48,-3.75 10.38,-4.07 0.49,-0.03 0.48,0.46 z"
       id="path105" />
    <path
       fill="#f9f4ed"
       d="m 514.76,579.62 -0.28,39.42 a 1.21,1.21 0 0 1 -1.22,1.2 l -6.01,-0.03 a 1.04,1.03 3.5 0 1 -1.02,-1.15 q 0.62,-5.39 0.2,-11.05 -0.28,-3.79 -0.21,-7.59 c 0.1,-6.49 -0.93,-12.84 -0.53,-19.37 q 2.19,-0.52 4.05,-1.35 c 2.06,-0.91 2.96,-0.62 5.02,-0.08 z"
       id="path106" />
    <path
       fill="#f9f4ed"
       d="m 518.31,579.35 q 5.3,-0.01 8.77,2.01 l -0.43,37.7 a 0.88,0.88 0 0 1 -0.84,0.87 q -2.91,0.15 -4.79,0.34 -2.33,0.23 -2.31,-2.02 0.13,-19.58 -0.4,-38.9 z"
       id="path107" />
    <path
       fill="#f9f4ed"
       d="m 540.8,580.44 -1.08,32.32 q -0.02,0.54 -0.31,1 -1.25,1.94 -1,4.14 a 2.47,2.47 0 0 1 -3.42,2.55 q -1.24,-0.52 -2.5,-0.54 -0.65,-0.01 -0.66,-0.66 -0.22,-21.01 -0.19,-31.24 0,-1.75 0.4,-4.5 5.05,-0.49 8.76,-3.07 z"
       id="path108" />
    <path
       fill="#f9f4ed"
       d="m 494.64,582.28 6.99,-0.12 q -0.37,10.26 0.72,20.08 0.55,4.96 -0.26,19.22 l -4.55,-0.03 q -0.28,-2.51 -2.76,-4.67 a 1.2,1.2 0 0 1 -0.4,-0.8 q -0.12,-1.4 1.24,-1.95 0.43,-0.17 0.41,-0.63 z"
       id="path109" />
    <rect
       fill="#000000"
       x="186.22"
       y="587.83002"
       width="120.28"
       height="7.6399999"
       rx="3.78"
       id="rect109" />
    <rect
       fill="#000000"
       x="720.52002"
       y="587.81"
       width="125.56"
       height="7.6999998"
       rx="3.8099999"
       id="rect110" />
    <circle
       fill="#fffdf6"
       cx="505.06"
       cy="644.23999"
       r="2.77"
       id="circle110" />
    <ellipse
       fill="#fffdf6"
       cx="496.53613"
       cy="-659.6734"
       transform="rotate(104.3)"
       rx="2.72"
       ry="2.46"
       id="ellipse110" />
    <ellipse
       fill="#fffdf6"
       cx="537.43054"
       cy="636.58838"
       transform="rotate(0.8)"
       rx="2.79"
       ry="2.47"
       id="ellipse111" />
    <path
       fill="#000000"
       d="m 380.98,833.25 -35.21,0.03 a 1.63,1.63 0 0 0 -1.49,0.97 l -7.12,16.28 a 4.8,4.79 11.5 0 1 -4.33,2.87 l -14.18,0.2 a 2.65,2.65 0 0 1 -2.56,-3.44 q 0.56,-1.78 1.47,-3.87 9.13,-20.77 18.63,-41.38 c 7.78,-16.86 15.06,-35.18 22.16,-51.08 2.29,-5.13 7.41,-4.99 9.65,0.17 q 11.58,26.58 41.96,94.24 c 1.39,3.1 0.62,5.66 -3.16,5.38 q -4.95,-0.37 -12.56,0 c -2.33,0.11 -3.72,-1.62 -4.75,-3.74 q -3.92,-8.04 -7.75,-16.15 -0.22,-0.48 -0.76,-0.48 z m -29.89,-15.1 a 0.3,0.3 0 0 0 0.28,0.42 l 23.47,0.12 a 0.3,0.3 0 0 0 0.28,-0.42 l -11.61,-25.75 a 0.3,0.3 0 0 0 -0.54,0 z"
       id="path111" />
    <path
       fill="#000000"
       d="m 679.51,833.45 -34.09,-0.04 a 3.1,3.09 12.1 0 0 -2.82,1.82 l -7.39,16.3 a 3.18,3.18 0 0 1 -2.86,1.86 l -14.94,0.1 a 2.68,2.69 11.8 0 1 -2.47,-3.78 q 20.82,-46.69 41.43,-93.73 c 1.55,-3.54 3.49,-6.67 7.54,-5.7 q 2.36,0.57 3.59,3.59 19.29,47.29 40.28,93.85 1.38,3.06 -0.61,5.31 a 1.15,1.13 20 0 1 -0.87,0.4 q -6.84,0 -13.59,0.11 -2.37,0.04 -3.67,-1.11 c -3.48,-3.04 -5.75,-11.46 -8.74,-18.46 q -0.22,-0.51 -0.79,-0.52 z m -26.82,-21 q -1.3,2.8 -2.73,5.64 -0.25,0.5 0.31,0.5 l 22.93,0.01 q 0.69,0 0.41,-0.63 l -10.87,-24.18 q -1.15,-2.54 -2.14,0.06 -3.36,8.77 -7.91,18.6 z"
       id="path112" />
    <path
       fill="#000000"
       d="m 541,807.27 q 0,-2.87 -1.95,-0.77 -11.07,11.91 -21.83,22.71 -1.52,1.53 -4.26,3.56 a 0.73,0.73 0 0 1 -0.87,-0.01 q -3.26,-2.53 -5.92,-5.42 -10,-10.85 -20.32,-20.8 a 0.59,0.59 0 0 0 -1,0.43 v 43.37 a 2.96,2.96 0 0 1 -2.94,2.96 l -13.32,0.12 a 2.92,2.92 0 0 1 -2.94,-2.92 q 0.12,-41.08 0.14,-82.02 c 0.01,-10.5 9.76,-1.3 12.43,1.7 10.95,12.34 22.67,24.09 34.39,35.55 q 0.52,0.51 1.04,0 19.79,-19.67 38.82,-40 c 2.47,-2.64 7.62,-2.71 7.61,2.27 q -0.07,41.44 -0.05,83.28 a 2.15,2.15 0 0 1 -2.15,2.15 l -13.89,0.05 a 3.04,3.04 0 0 1 -3.05,-3.04 z"
       id="path113" />
    <path
       fill="#fffdf6"
       d="m 351.09,818.15 11.88,-25.63 a 0.3,0.3 0 0 1 0.54,0 l 11.61,25.75 a 0.3,0.3 0 0 1 -0.28,0.42 l -23.47,-0.12 a 0.3,0.3 0 0 1 -0.28,-0.42 z"
       id="path114" />
    <path
       fill="#fffdf6"
       d="m 652.69,812.45 q 4.55,-9.83 7.91,-18.6 0.99,-2.6 2.14,-0.06 l 10.87,24.18 q 0.28,0.63 -0.41,0.63 l -22.93,-0.01 q -0.56,0 -0.31,-0.5 1.43,-2.84 2.73,-5.64 z"
       id="path115" />
  </g>
</svg>
